# xmcd
#
# Track frame offsets:
#	150
#	17058
#	45175
#	71888
#	96013
#	115920
#	132940
#	159161
#	175067
#	195445
#
# Disc length: 2957 seconds
#
# Revision: 1
# Processed by: cddbd v1.5.2PL0 Copyright (c) Steve Scherf et al.
# Submitted via: EasyCDDAExtractor 8.2.3.1
#
DISCID=760b8b0a
DTITLE=Koolinger - Be Sharp
DYEAR=2000
DGENRE=Blues
TTITLE0=Titty Twister
TTITLE1=Introducer
TTITLE2=Gelsenplage
TTITLE3=Be Sharp
TTITLE4=Soul Must Go On
TTITLE5=Marakesh
TTITLE6=Flirty Gerty
TTITLE7=Drime My Car
TTITLE8=Basically Blues
TTITLE9=It Used To Be
EXTD=
EXTT0=
EXTT1=
EXTT2=
EXTT3=
EXTT4=
EXTT5=
EXTT6=
EXTT7=
EXTT8=
EXTT9=
PLAYORDER=
